<svg width="31" height="32" viewBox="0 0 31 32" fill="none" xmlns="http://www.w3.org/2000/svg">
<path d="M15.5 26.5L22.3333 19.5L19.9417 17.05L17.2083 19.85V12.5H13.7917V19.85L11.0583 17.05L8.66667 19.5L15.5 26.5ZM3.54167 9V28.25H27.4583V9H3.54167ZM3.54167 31.75C2.60208 31.75 1.79063 31.4146 1.10729 30.7437C0.452431 30.0437 0.125 29.2125 0.125 28.25V6.41875C0.125 6.01042 0.181945 5.61667 0.295834 5.2375C0.438195 4.85833 0.6375 4.50833 0.893751 4.1875L3.02917 1.51875C3.34236 1.11042 3.72674 0.804167 4.18229 0.6C4.66632 0.366667 5.16458 0.25 5.67708 0.25H25.3229C25.8354 0.25 26.3194 0.366667 26.775 0.6C27.259 0.804167 27.6576 1.11042 27.9708 1.51875L30.1063 4.1875C30.3625 4.50833 30.5476 4.85833 30.6615 5.2375C30.8038 5.61667 30.875 6.01042 30.875 6.41875V28.25C30.875 29.2125 30.5333 30.0437 29.85 30.7437C29.1951 31.4146 28.3979 31.75 27.4583 31.75H3.54167ZM4.225 5.5H26.775L25.3229 3.75H5.67708L4.225 5.5Z" fill="#FEF7FF"/>
</svg>
