<svg width="41" height="28" viewBox="0 0 41 28" fill="none" xmlns="http://www.w3.org/2000/svg">
<path d="M0 28V23.1438C0 22.1521 0.242014 21.2333 0.726042 20.3875C1.21007 19.5417 1.87917 18.9 2.73333 18.4625C3.13194 18.2583 3.51632 18.0688 3.88646 17.8938C4.28507 17.7188 4.69792 17.5583 5.125 17.4125V28H0ZM6.83333 15.75C5.40972 15.75 4.19965 15.2396 3.20313 14.2188C2.2066 13.1979 1.70833 11.9583 1.70833 10.5C1.70833 9.04167 2.2066 7.80208 3.20313 6.78125C4.19965 5.76042 5.40972 5.25 6.83333 5.25C8.25694 5.25 9.46701 5.76042 10.4635 6.78125C11.4601 7.80208 11.9583 9.04167 11.9583 10.5C11.9583 11.9583 11.4601 13.1979 10.4635 14.2188C9.46701 15.2396 8.25694 15.75 6.83333 15.75ZM6.83333 12.25C7.31736 12.25 7.71597 12.0896 8.02917 11.7688C8.37083 11.4188 8.54167 10.9958 8.54167 10.5C8.54167 10.0042 8.37083 9.59583 8.02917 9.275C7.71597 8.925 7.31736 8.75 6.83333 8.75C6.34931 8.75 5.93646 8.925 5.59479 9.275C5.2816 9.59583 5.125 10.0042 5.125 10.5C5.125 10.9958 5.2816 11.4188 5.59479 11.7688C5.93646 12.0896 6.34931 12.25 6.83333 12.25ZM6.83333 28V23.1C6.83333 22.1083 7.07535 21.2042 7.55938 20.3875C8.07188 19.5417 8.74097 18.9 9.56667 18.4625C11.3319 17.5583 13.1257 16.8875 14.9479 16.45C16.7701 15.9833 18.6208 15.75 20.5 15.75C22.3792 15.75 24.2299 15.9833 26.0521 16.45C27.8743 16.8875 29.6681 17.5583 31.4333 18.4625C32.259 18.9 32.9139 19.5417 33.3979 20.3875C33.9104 21.2042 34.1667 22.1083 34.1667 23.1V28H6.83333ZM10.25 24.5H30.75V23.1C30.75 22.7792 30.6646 22.4875 30.4938 22.225C30.3514 21.9625 30.1521 21.7583 29.8958 21.6125C28.3583 20.825 26.8066 20.2417 25.2406 19.8625C23.6747 19.4542 22.0944 19.25 20.5 19.25C18.9056 19.25 17.3253 19.4542 15.7594 19.8625C14.1934 20.2417 12.6417 20.825 11.1042 21.6125C10.8479 21.7583 10.6344 21.9625 10.4635 22.225C10.3212 22.4875 10.25 22.7792 10.25 23.1V24.5ZM20.5 14C18.6208 14 17.0122 13.3146 15.674 11.9438C14.3358 10.5729 13.6667 8.925 13.6667 7C13.6667 5.075 14.3358 3.42708 15.674 2.05625C17.0122 0.685417 18.6208 0 20.5 0C22.3792 0 23.9878 0.685417 25.326 2.05625C26.6642 3.42708 27.3333 5.075 27.3333 7C27.3333 8.925 26.6642 10.5729 25.326 11.9438C23.9878 13.3146 22.3792 14 20.5 14ZM20.5 10.5C21.4396 10.5 22.2368 10.1646 22.8917 9.49375C23.575 8.79375 23.9167 7.9625 23.9167 7C23.9167 6.0375 23.575 5.22083 22.8917 4.55C22.2368 3.85 21.4396 3.5 20.5 3.5C19.5604 3.5 18.749 3.85 18.0656 4.55C17.4108 5.22083 17.0833 6.0375 17.0833 7C17.0833 7.9625 17.4108 8.79375 18.0656 9.49375C18.749 10.1646 19.5604 10.5 20.5 10.5ZM34.1667 15.75C32.7431 15.75 31.533 15.2396 30.5365 14.2188C29.5399 13.1979 29.0417 11.9583 29.0417 10.5C29.0417 9.04167 29.5399 7.80208 30.5365 6.78125C31.533 5.76042 32.7431 5.25 34.1667 5.25C35.5903 5.25 36.8004 5.76042 37.7969 6.78125C38.7934 7.80208 39.2917 9.04167 39.2917 10.5C39.2917 11.9583 38.7934 13.1979 37.7969 14.2188C36.8004 15.2396 35.5903 15.75 34.1667 15.75ZM34.1667 12.25C34.6507 12.25 35.0493 12.0896 35.3625 11.7688C35.7042 11.4188 35.875 10.9958 35.875 10.5C35.875 10.0042 35.7042 9.59583 35.3625 9.275C35.0493 8.925 34.6507 8.75 34.1667 8.75C33.6826 8.75 33.2698 8.925 32.9281 9.275C32.6149 9.59583 32.4583 10.0042 32.4583 10.5C32.4583 10.9958 32.6149 11.4188 32.9281 11.7688C33.2698 12.0896 33.6826 12.25 34.1667 12.25ZM35.875 28V17.4125C36.3021 17.5583 36.7007 17.7188 37.0708 17.8938C37.4694 18.0688 37.8681 18.2583 38.2667 18.4625C39.1208 18.9 39.7899 19.5417 40.274 20.3875C40.758 21.2333 41 22.1521 41 23.1438V28H35.875Z" fill="white"/>
</svg>
