<svg width="29" height="31" viewBox="0 0 29 31" fill="none" xmlns="http://www.w3.org/2000/svg">
<path d="M18.122 5.14285H1.65854V8.10203C1.65854 9.2857 7.58537 14.6122 7.58537 14.6122L1 20.5306L3.63415 22.8979L25.3659 3.36734L22.7317 1L18.122 5.14285Z" fill="#151515"/>
<path d="M26.6829 5.14285L11.5366 18.7551C11.5366 18.7551 12.1951 19.3469 12.1951 19.9387V29.9999L17.4634 27.6326V19.9387V19.3469C17.4634 19.2846 17.5803 19.1237 17.7895 18.8852C19.5661 16.8588 28 9.22336 28 8.69386V5.14285H26.6829Z" fill="#151515"/>
<path d="M18.122 5.14285H1.65854V8.10203C1.65854 9.2857 7.58537 14.6122 7.58537 14.6122L1 20.5306L3.63415 22.8979L25.3659 3.36734L22.7317 1L18.122 5.14285Z" stroke="#151515" stroke-width="0.05"/>
<path d="M26.6829 5.14285L11.5366 18.7551C11.5366 18.7551 12.1951 19.3469 12.1951 19.9387V29.9999L17.4634 27.6326V19.9387V19.3469C17.4634 19.2846 17.5803 19.1237 17.7895 18.8852C19.5661 16.8588 28 9.22336 28 8.69386V5.14285H26.6829Z" stroke="#151515" stroke-width="0.05"/>
</svg>
