<svg width="65" height="48" viewBox="0 0 65 48" fill="none" xmlns="http://www.w3.org/2000/svg">
<path d="M3 45V42.5C3 32.835 11.0589 25 21 25C30.9411 25 39 32.835 39 42.5V45" stroke="white" stroke-width="6" stroke-linecap="round" stroke-linejoin="round"/>
<path d="M21 25C26.5227 25 31 20.5227 31 15C31 9.47715 26.5227 5 21 5C15.4771 5 11 9.47715 11 15C11 20.5227 15.4771 25 21 25Z" stroke="white" stroke-width="6" stroke-linecap="round" stroke-linejoin="round"/>
<path d="M39 27V25.4375C39 19.3969 44.3726 14.5 51 14.5C57.6274 14.5 63 19.3969 63 25.4375V27" stroke="white" stroke-width="4" stroke-linecap="round" stroke-linejoin="round"/>
<path d="M51.0001 14.5C54.7871 14.5 57.8572 11.7017 57.8572 8.25C57.8572 4.79822 54.7871 2 51.0001 2C47.213 2 44.1429 4.79822 44.1429 8.25C44.1429 11.7017 47.213 14.5 51.0001 14.5Z" stroke="white" stroke-width="4" stroke-linecap="round" stroke-linejoin="round"/>
</svg>
